<svg xmlns="http://www.w3.org/2000/svg" width="507" height="426" viewBox="0 0 507 426" fill="none"><rect x="350.258" y="18.8678" width="124.877" height="124.877" transform="rotate(38.7588 350.258 18.8678)" stroke="#FFC632" stroke-width="3.04271"></rect><circle cx="44.6017" cy="362.479" r="37.946" stroke="#FFBA49" stroke-width="12.69"></circle><circle cx="115.925" cy="376.573" r="0.819881" transform="rotate(90.3446 115.925 376.573)" fill="#E9AE14"></circle><circle cx="115.853" cy="388.597" r="0.819881" transform="rotate(90.3446 115.853 388.597)" fill="#E9AE14"></circle><circle cx="115.78" cy="400.622" r="0.819881" transform="rotate(90.3446 115.78 400.622)" fill="#E9AE14"></circle><circle cx="115.708" cy="412.647" r="0.819881" transform="rotate(90.3446 115.708 412.647)" fill="#E9AE14"></circle><circle cx="115.636" cy="424.671" r="0.819881" transform="rotate(90.3446 115.636 424.671)" fill="#E9AE14"></circle><circle cx="103.9" cy="376.5" r="0.819881" transform="rotate(90.3446 103.9 376.5)" fill="#E9AE14"></circle><circle cx="103.828" cy="388.525" r="0.819881" transform="rotate(90.3446 103.828 388.525)" fill="#E9AE14"></circle><circle cx="103.756" cy="400.55" r="0.819881" transform="rotate(90.3446 103.756 400.55)" fill="#E9AE14"></circle><circle cx="103.683" cy="412.574" r="0.819881" transform="rotate(90.3446 103.683 412.574)" fill="#E9AE14"></circle><circle cx="103.611" cy="424.599" r="0.819881" transform="rotate(90.3446 103.611 424.599)" fill="#E9AE14"></circle><circle cx="91.8756" cy="376.428" r="0.819881" transform="rotate(90.3446 91.8756 376.428)" fill="#E9AE14"></circle><circle cx="91.8034" cy="388.452" r="0.819881" transform="rotate(90.3446 91.8034 388.452)" fill="#E9AE14"></circle><circle cx="91.731" cy="400.477" r="0.819881" transform="rotate(90.3446 91.731 400.477)" fill="#E9AE14"></circle><circle cx="91.6588" cy="412.502" r="0.819881" transform="rotate(90.3446 91.6588 412.502)" fill="#E9AE14"></circle><circle cx="91.5865" cy="424.527" r="0.819881" transform="rotate(90.3446 91.5865 424.527)" fill="#E9AE14"></circle><circle cx="79.851" cy="376.355" r="0.819881" transform="rotate(90.3446 79.851 376.355)" fill="#E9AE14"></circle><circle cx="79.7786" cy="388.38" r="0.819881" transform="rotate(90.3446 79.7786 388.38)" fill="#E9AE14"></circle><circle cx="79.7063" cy="400.405" r="0.819881" transform="rotate(90.3446 79.7063 400.405)" fill="#E9AE14"></circle><circle cx="79.634" cy="412.43" r="0.819881" transform="rotate(90.3446 79.634 412.43)" fill="#E9AE14"></circle><circle cx="79.5617" cy="424.454" r="0.819881" transform="rotate(90.3446 79.5617 424.454)" fill="#E9AE14"></circle><circle cx="67.8263" cy="376.283" r="0.819881" transform="rotate(90.3446 67.8263 376.283)" fill="#E9AE14"></circle><circle cx="67.7539" cy="388.308" r="0.819881" transform="rotate(90.3446 67.7539 388.308)" fill="#E9AE14"></circle><circle cx="67.6817" cy="400.333" r="0.819881" transform="rotate(90.3446 67.6817 400.333)" fill="#E9AE14"></circle><circle cx="67.6093" cy="412.357" r="0.819881" transform="rotate(90.3446 67.6093 412.357)" fill="#E9AE14"></circle><circle cx="67.537" cy="424.382" r="0.819881" transform="rotate(90.3446 67.537 424.382)" fill="#E9AE14"></circle><circle cx="55.8015" cy="376.211" r="0.819881" transform="rotate(90.3446 55.8015 376.211)" fill="#E9AE14"></circle><circle cx="55.7293" cy="388.236" r="0.819881" transform="rotate(90.3446 55.7293 388.236)" fill="#E9AE14"></circle><circle cx="55.657" cy="400.26" r="0.819881" transform="rotate(90.3446 55.657 400.26)" fill="#E9AE14"></circle><circle cx="55.5847" cy="412.285" r="0.819881" transform="rotate(90.3446 55.5847 412.285)" fill="#E9AE14"></circle><circle cx="55.5123" cy="424.31" r="0.819881" transform="rotate(90.3446 55.5123 424.31)" fill="#E9AE14"></circle><circle cx="43.7769" cy="376.138" r="0.819881" transform="rotate(90.3446 43.7769 376.138)" fill="#E9AE14"></circle><circle cx="43.7046" cy="388.163" r="0.819881" transform="rotate(90.3446 43.7046 388.163)" fill="#E9AE14"></circle><circle cx="43.6323" cy="400.188" r="0.819881" transform="rotate(90.3446 43.6323 400.188)" fill="#E9AE14"></circle><circle cx="43.56" cy="412.213" r="0.819881" transform="rotate(90.3446 43.56 412.213)" fill="#E9AE14"></circle><circle cx="43.4876" cy="424.237" r="0.819881" transform="rotate(90.3446 43.4876 424.237)" fill="#E9AE14"></circle><circle cx="401.35" cy="96.189" r="0.717985" transform="rotate(180 401.35 96.189)" fill="#E9AE14"></circle><circle cx="390.82" cy="96.189" r="0.717985" transform="rotate(180 390.82 96.189)" fill="#E9AE14"></circle><circle cx="380.289" cy="96.189" r="0.717985" transform="rotate(180 380.289 96.189)" fill="#E9AE14"></circle><circle cx="369.759" cy="96.189" r="0.717985" transform="rotate(180 369.759 96.189)" fill="#E9AE14"></circle><circle cx="359.228" cy="96.189" r="0.717985" transform="rotate(180 359.228 96.189)" fill="#E9AE14"></circle><circle cx="401.35" cy="85.6585" r="0.717985" transform="rotate(180 401.35 85.6585)" fill="#E9AE14"></circle><circle cx="390.82" cy="85.6585" r="0.717985" transform="rotate(180 390.82 85.6585)" fill="#E9AE14"></circle><circle cx="380.289" cy="85.6585" r="0.717985" transform="rotate(180 380.289 85.6585)" fill="#E9AE14"></circle><circle cx="369.759" cy="85.6585" r="0.717985" transform="rotate(180 369.759 85.6585)" fill="#E9AE14"></circle><circle cx="359.228" cy="85.6585" r="0.717985" transform="rotate(180 359.228 85.6585)" fill="#E9AE14"></circle><circle cx="401.35" cy="75.1282" r="0.717985" transform="rotate(180 401.35 75.1282)" fill="#E9AE14"></circle><circle cx="390.82" cy="75.1282" r="0.717985" transform="rotate(180 390.82 75.1282)" fill="#E9AE14"></circle><circle cx="380.289" cy="75.1282" r="0.717985" transform="rotate(180 380.289 75.1282)" fill="#E9AE14"></circle><circle cx="369.759" cy="75.1282" r="0.717985" transform="rotate(180 369.759 75.1282)" fill="#E9AE14"></circle><circle cx="359.228" cy="75.1282" r="0.717985" transform="rotate(180 359.228 75.1282)" fill="#E9AE14"></circle><circle cx="401.35" cy="64.5977" r="0.717985" transform="rotate(180 401.35 64.5977)" fill="#E9AE14"></circle><circle cx="390.82" cy="64.5977" r="0.717985" transform="rotate(180 390.82 64.5977)" fill="#E9AE14"></circle><circle cx="380.289" cy="64.5977" r="0.717985" transform="rotate(180 380.289 64.5977)" fill="#E9AE14"></circle><circle cx="369.759" cy="64.5977" r="0.717985" transform="rotate(180 369.759 64.5977)" fill="#E9AE14"></circle><circle cx="359.228" cy="64.5977" r="0.717985" transform="rotate(180 359.228 64.5977)" fill="#E9AE14"></circle><circle cx="401.35" cy="54.0672" r="0.717985" transform="rotate(180 401.35 54.0672)" fill="#E9AE14"></circle><circle cx="390.82" cy="54.0672" r="0.717985" transform="rotate(180 390.82 54.0672)" fill="#E9AE14"></circle><circle cx="380.289" cy="54.0672" r="0.717985" transform="rotate(180 380.289 54.0672)" fill="#E9AE14"></circle><circle cx="369.759" cy="54.0672" r="0.717985" transform="rotate(180 369.759 54.0672)" fill="#E9AE14"></circle><circle cx="359.228" cy="54.0672" r="0.717985" transform="rotate(180 359.228 54.0672)" fill="#E9AE14"></circle><circle cx="401.35" cy="43.5367" r="0.717985" transform="rotate(180 401.35 43.5367)" fill="#E9AE14"></circle><circle cx="390.82" cy="43.5369" r="0.717985" transform="rotate(180 390.82 43.5369)" fill="#E9AE14"></circle><circle cx="380.289" cy="43.5369" r="0.717985" transform="rotate(180 380.289 43.5369)" fill="#E9AE14"></circle><circle cx="369.759" cy="43.5369" r="0.717985" transform="rotate(180 369.759 43.5369)" fill="#E9AE14"></circle><circle cx="359.228" cy="43.5369" r="0.717985" transform="rotate(180 359.228 43.5369)" fill="#E9AE14"></circle><circle cx="401.35" cy="33.0064" r="0.717985" transform="rotate(180 401.35 33.0064)" fill="#E9AE14"></circle><circle cx="390.82" cy="33.0064" r="0.717985" transform="rotate(180 390.82 33.0064)" fill="#E9AE14"></circle><circle cx="380.289" cy="33.0064" r="0.717985" transform="rotate(180 380.289 33.0064)" fill="#E9AE14"></circle><circle cx="369.759" cy="33.0064" r="0.717985" transform="rotate(180 369.759 33.0064)" fill="#E9AE14"></circle><circle cx="359.228" cy="33.0064" r="0.717985" transform="rotate(180 359.228 33.0064)" fill="#E9AE14"></circle><circle cx="401.35" cy="22.4759" r="0.717985" transform="rotate(180 401.35 22.4759)" fill="#E9AE14"></circle><circle cx="390.82" cy="22.4759" r="0.717985" transform="rotate(180 390.82 22.4759)" fill="#E9AE14"></circle><circle cx="380.289" cy="22.4759" r="0.717985" transform="rotate(180 380.289 22.4759)" fill="#E9AE14"></circle><circle cx="369.759" cy="22.4759" r="0.717985" transform="rotate(180 369.759 22.4759)" fill="#E9AE14"></circle><circle cx="359.228" cy="22.4759" r="0.717985" transform="rotate(180 359.228 22.4759)" fill="#E9AE14"></circle><circle cx="401.35" cy="11.9453" r="0.717985" transform="rotate(180 401.35 11.9453)" fill="#E9AE14"></circle><circle cx="390.82" cy="11.9453" r="0.717985" transform="rotate(180 390.82 11.9453)" fill="#E9AE14"></circle><circle cx="380.289" cy="11.9453" r="0.717985" transform="rotate(180 380.289 11.9453)" fill="#E9AE14"></circle><circle cx="369.759" cy="11.9453" r="0.717985" transform="rotate(180 369.759 11.9453)" fill="#E9AE14"></circle><circle cx="359.228" cy="11.9453" r="0.717985" transform="rotate(180 359.228 11.9453)" fill="#E9AE14"></circle><circle cx="401.35" cy="1.41507" r="0.717985" transform="rotate(180 401.35 1.41507)" fill="#E9AE14"></circle><circle cx="390.82" cy="1.41507" r="0.717985" transform="rotate(180 390.82 1.41507)" fill="#E9AE14"></circle><circle cx="380.289" cy="1.41507" r="0.717985" transform="rotate(180 380.289 1.41507)" fill="#E9AE14"></circle><circle cx="369.759" cy="1.41507" r="0.717985" transform="rotate(180 369.759 1.41507)" fill="#E9AE14"></circle><circle cx="359.228" cy="1.41507" r="0.717985" transform="rotate(180 359.228 1.41507)" fill="#E9AE14"></circle><circle cx="444.238" cy="401.232" r="1.02098" transform="rotate(-62.4996 444.238 401.232)" fill="#E9AE14"></circle><circle cx="451.152" cy="387.95" r="1.02098" transform="rotate(-62.4996 451.152 387.95)" fill="#E9AE14"></circle><circle cx="458.066" cy="374.668" r="1.02098" transform="rotate(-62.4996 458.066 374.668)" fill="#E9AE14"></circle><circle cx="464.981" cy="361.385" r="1.02098" transform="rotate(-62.4996 464.981 361.385)" fill="#E9AE14"></circle><circle cx="457.52" cy="408.147" r="1.02098" transform="rotate(-62.4996 457.52 408.147)" fill="#E9AE14"></circle><circle cx="464.434" cy="394.864" r="1.02098" transform="rotate(-62.4996 464.434 394.864)" fill="#E9AE14"></circle><circle cx="471.349" cy="381.582" r="1.02098" transform="rotate(-62.4996 471.349 381.582)" fill="#E9AE14"></circle><circle cx="478.263" cy="368.3" r="1.02098" transform="rotate(-62.4996 478.263 368.3)" fill="#E9AE14"></circle><circle cx="470.802" cy="415.061" r="1.02098" transform="rotate(-62.4996 470.802 415.061)" fill="#E9AE14"></circle><circle cx="477.717" cy="401.779" r="1.02098" transform="rotate(-62.4996 477.717 401.779)" fill="#E9AE14"></circle><circle cx="484.631" cy="388.497" r="1.02098" transform="rotate(-62.4996 484.631 388.497)" fill="#E9AE14"></circle><circle cx="491.546" cy="375.214" r="1.02098" transform="rotate(-62.4996 491.546 375.214)" fill="#E9AE14"></circle><circle cx="484.084" cy="421.976" r="1.02098" transform="rotate(-62.4996 484.084 421.976)" fill="#E9AE14"></circle><circle cx="490.999" cy="408.694" r="1.02098" transform="rotate(-62.4996 490.999 408.694)" fill="#E9AE14"></circle><circle cx="497.913" cy="395.411" r="1.02098" transform="rotate(-62.4996 497.913 395.411)" fill="#E9AE14"></circle><circle cx="504.828" cy="382.129" r="1.02098" transform="rotate(-62.4996 504.828 382.129)" fill="#E9AE14"></circle></svg>