<svg xmlns="http://www.w3.org/2000/svg" width="517" height="423" viewBox="0 0 517 423" fill="none"><rect x="-0.233902" y="2.13877" width="124.877" height="124.877" transform="matrix(-0.779789 0.626043 0.626043 0.779789 172.437 16.841)" stroke="#6BBEE6" stroke-width="3.04271"></rect><circle r="0.819881" transform="matrix(0.00601373 0.999982 0.999982 -0.00601373 443.319 345.339)" fill="#2A67B1"></circle><circle r="0.819881" transform="matrix(0.00601373 0.999982 0.999982 -0.00601373 443.391 357.364)" fill="#2A67B1"></circle><circle r="0.819881" transform="matrix(0.00601373 0.999982 0.999982 -0.00601373 443.464 369.388)" fill="#2A67B1"></circle><circle r="0.819881" transform="matrix(0.00601373 0.999982 0.999982 -0.00601373 443.536 381.413)" fill="#2A67B1"></circle><circle r="0.819881" transform="matrix(0.00601373 0.999982 0.999982 -0.00601373 443.608 393.438)" fill="#2A67B1"></circle><circle r="0.819881" transform="matrix(0.00601373 0.999982 0.999982 -0.00601373 455.344 345.267)" fill="#2A67B1"></circle><circle r="0.819881" transform="matrix(0.00601373 0.999982 0.999982 -0.00601373 455.416 357.291)" fill="#2A67B1"></circle><circle r="0.819881" transform="matrix(0.00601373 0.999982 0.999982 -0.00601373 455.489 369.316)" fill="#2A67B1"></circle><circle r="0.819881" transform="matrix(0.00601373 0.999982 0.999982 -0.00601373 455.561 381.341)" fill="#2A67B1"></circle><circle r="0.819881" transform="matrix(0.00601373 0.999982 0.999982 -0.00601373 455.633 393.365)" fill="#2A67B1"></circle><circle r="0.819881" transform="matrix(0.00601373 0.999982 0.999982 -0.00601373 467.369 345.195)" fill="#2A67B1"></circle><circle r="0.819881" transform="matrix(0.00601373 0.999982 0.999982 -0.00601373 467.441 357.219)" fill="#2A67B1"></circle><circle r="0.819881" transform="matrix(0.00601373 0.999982 0.999982 -0.00601373 467.513 369.244)" fill="#2A67B1"></circle><circle r="0.819881" transform="matrix(0.00601373 0.999982 0.999982 -0.00601373 467.585 381.268)" fill="#2A67B1"></circle><circle r="0.819881" transform="matrix(0.00601373 0.999982 0.999982 -0.00601373 467.658 393.293)" fill="#2A67B1"></circle><circle r="0.819881" transform="matrix(0.00601373 0.999982 0.999982 -0.00601373 479.393 345.122)" fill="#2A67B1"></circle><circle r="0.819881" transform="matrix(0.00601373 0.999982 0.999982 -0.00601373 479.466 357.147)" fill="#2A67B1"></circle><circle r="0.819881" transform="matrix(0.00601373 0.999982 0.999982 -0.00601373 479.538 369.172)" fill="#2A67B1"></circle><circle r="0.819881" transform="matrix(0.00601373 0.999982 0.999982 -0.00601373 479.61 381.196)" fill="#2A67B1"></circle><circle r="0.819881" transform="matrix(0.00601373 0.999982 0.999982 -0.00601373 479.682 393.221)" fill="#2A67B1"></circle><circle r="0.819881" transform="matrix(0.00601373 0.999982 0.999982 -0.00601373 491.418 345.05)" fill="#2A67B1"></circle><circle r="0.819881" transform="matrix(0.00601373 0.999982 0.999982 -0.00601373 491.49 357.074)" fill="#2A67B1"></circle><circle r="0.819881" transform="matrix(0.00601373 0.999982 0.999982 -0.00601373 491.563 369.099)" fill="#2A67B1"></circle><circle r="0.819881" transform="matrix(0.00601373 0.999982 0.999982 -0.00601373 491.635 381.124)" fill="#2A67B1"></circle><circle r="0.819881" transform="matrix(0.00601373 0.999982 0.999982 -0.00601373 491.707 393.149)" fill="#2A67B1"></circle><circle r="0.819881" transform="matrix(0.00601373 0.999982 0.999982 -0.00601373 503.443 344.978)" fill="#2A67B1"></circle><circle r="0.819881" transform="matrix(0.00601373 0.999982 0.999982 -0.00601373 503.515 357.002)" fill="#2A67B1"></circle><circle r="0.819881" transform="matrix(0.00601373 0.999982 0.999982 -0.00601373 503.587 369.027)" fill="#2A67B1"></circle><circle r="0.819881" transform="matrix(0.00601373 0.999982 0.999982 -0.00601373 503.66 381.052)" fill="#2A67B1"></circle><circle r="0.819881" transform="matrix(0.00601373 0.999982 0.999982 -0.00601373 503.732 393.076)" fill="#2A67B1"></circle><circle r="0.819881" transform="matrix(0.00601373 0.999982 0.999982 -0.00601373 515.467 344.905)" fill="#2A67B1"></circle><circle r="0.819881" transform="matrix(0.00601373 0.999982 0.999982 -0.00601373 515.54 356.93)" fill="#2A67B1"></circle><circle r="0.819881" transform="matrix(0.00601373 0.999982 0.999982 -0.00601373 515.612 368.955)" fill="#2A67B1"></circle><circle r="0.819881" transform="matrix(0.00601373 0.999982 0.999982 -0.00601373 515.684 380.979)" fill="#2A67B1"></circle><circle r="0.819881" transform="matrix(0.00601373 0.999982 0.999982 -0.00601373 515.757 393.004)" fill="#2A67B1"></circle><circle r="0.717985" transform="matrix(1 8.74228e-08 8.74228e-08 -1 122.866 95.6836)" fill="#2A67B1"></circle><circle r="0.717985" transform="matrix(1 8.74228e-08 8.74228e-08 -1 133.397 95.6836)" fill="#2A67B1"></circle><circle r="0.717985" transform="matrix(1 8.74228e-08 8.74228e-08 -1 143.927 95.6836)" fill="#2A67B1"></circle><circle r="0.717985" transform="matrix(1 8.74228e-08 8.74228e-08 -1 154.458 95.6836)" fill="#2A67B1"></circle><circle r="0.717985" transform="matrix(1 8.74228e-08 8.74228e-08 -1 164.988 95.6836)" fill="#2A67B1"></circle><circle r="0.717985" transform="matrix(1 8.74228e-08 8.74228e-08 -1 122.866 85.1531)" fill="#2A67B1"></circle><circle r="0.717985" transform="matrix(1 8.74228e-08 8.74228e-08 -1 133.397 85.1531)" fill="#2A67B1"></circle><circle r="0.717985" transform="matrix(1 8.74228e-08 8.74228e-08 -1 143.927 85.1531)" fill="#2A67B1"></circle><circle r="0.717985" transform="matrix(1 8.74228e-08 8.74228e-08 -1 154.458 85.1531)" fill="#2A67B1"></circle><circle r="0.717985" transform="matrix(1 8.74228e-08 8.74228e-08 -1 164.988 85.1531)" fill="#2A67B1"></circle><circle r="0.717985" transform="matrix(1 8.74228e-08 8.74228e-08 -1 122.866 74.6228)" fill="#2A67B1"></circle><circle r="0.717985" transform="matrix(1 8.74228e-08 8.74228e-08 -1 133.397 74.6228)" fill="#2A67B1"></circle><circle r="0.717985" transform="matrix(1 8.74228e-08 8.74228e-08 -1 143.927 74.6228)" fill="#2A67B1"></circle><circle r="0.717985" transform="matrix(1 8.74228e-08 8.74228e-08 -1 154.458 74.6228)" fill="#2A67B1"></circle><circle r="0.717985" transform="matrix(1 8.74228e-08 8.74228e-08 -1 164.988 74.6228)" fill="#2A67B1"></circle><circle r="0.717985" transform="matrix(1 8.74228e-08 8.74228e-08 -1 122.866 64.0923)" fill="#2A67B1"></circle><circle r="0.717985" transform="matrix(1 8.74228e-08 8.74228e-08 -1 133.397 64.0923)" fill="#2A67B1"></circle><circle r="0.717985" transform="matrix(1 8.74228e-08 8.74228e-08 -1 143.927 64.0923)" fill="#2A67B1"></circle><circle r="0.717985" transform="matrix(1 8.74228e-08 8.74228e-08 -1 154.458 64.0923)" fill="#2A67B1"></circle><circle r="0.717985" transform="matrix(1 8.74228e-08 8.74228e-08 -1 164.988 64.0923)" fill="#2A67B1"></circle><circle r="0.717985" transform="matrix(1 8.74228e-08 8.74228e-08 -1 122.866 53.5618)" fill="#2A67B1"></circle><circle r="0.717985" transform="matrix(1 8.74228e-08 8.74228e-08 -1 133.397 53.5618)" fill="#2A67B1"></circle><circle r="0.717985" transform="matrix(1 8.74228e-08 8.74228e-08 -1 143.927 53.5618)" fill="#2A67B1"></circle><circle r="0.717985" transform="matrix(1 8.74228e-08 8.74228e-08 -1 154.458 53.5618)" fill="#2A67B1"></circle><circle r="0.717985" transform="matrix(1 8.74228e-08 8.74228e-08 -1 164.988 53.5618)" fill="#2A67B1"></circle><circle r="0.717985" transform="matrix(1 8.74228e-08 8.74228e-08 -1 122.866 43.0313)" fill="#2A67B1"></circle><circle r="0.717985" transform="matrix(1 8.74228e-08 8.74228e-08 -1 133.397 43.0315)" fill="#2A67B1"></circle><circle r="0.717985" transform="matrix(1 8.74228e-08 8.74228e-08 -1 143.927 43.0315)" fill="#2A67B1"></circle><circle r="0.717985" transform="matrix(1 8.74228e-08 8.74228e-08 -1 154.458 43.0315)" fill="#2A67B1"></circle><circle r="0.717985" transform="matrix(1 8.74228e-08 8.74228e-08 -1 164.988 43.0315)" fill="#2A67B1"></circle><circle r="0.717985" transform="matrix(1 8.74228e-08 8.74228e-08 -1 122.866 32.501)" fill="#2A67B1"></circle><circle r="0.717985" transform="matrix(1 8.74228e-08 8.74228e-08 -1 133.397 32.501)" fill="#2A67B1"></circle><circle r="0.717985" transform="matrix(1 8.74228e-08 8.74228e-08 -1 143.927 32.501)" fill="#2A67B1"></circle><circle r="0.717985" transform="matrix(1 8.74228e-08 8.74228e-08 -1 154.458 32.501)" fill="#2A67B1"></circle><circle r="0.717985" transform="matrix(1 8.74228e-08 8.74228e-08 -1 164.988 32.501)" fill="#2A67B1"></circle><circle r="0.717985" transform="matrix(1 8.74228e-08 8.74228e-08 -1 122.866 21.9705)" fill="#2A67B1"></circle><circle r="0.717985" transform="matrix(1 8.74228e-08 8.74228e-08 -1 133.397 21.9705)" fill="#2A67B1"></circle><circle r="0.717985" transform="matrix(1 8.74228e-08 8.74228e-08 -1 143.927 21.9705)" fill="#2A67B1"></circle><circle r="0.717985" transform="matrix(1 8.74228e-08 8.74228e-08 -1 154.458 21.9705)" fill="#2A67B1"></circle><circle r="0.717985" transform="matrix(1 8.74228e-08 8.74228e-08 -1 164.988 21.9705)" fill="#2A67B1"></circle><circle r="0.717985" transform="matrix(1 8.74228e-08 8.74228e-08 -1 122.866 11.44)" fill="#2A67B1"></circle><circle r="0.717985" transform="matrix(1 8.74228e-08 8.74228e-08 -1 133.397 11.44)" fill="#2A67B1"></circle><circle r="0.717985" transform="matrix(1 8.74228e-08 8.74228e-08 -1 143.927 11.44)" fill="#2A67B1"></circle><circle r="0.717985" transform="matrix(1 8.74228e-08 8.74228e-08 -1 154.458 11.44)" fill="#2A67B1"></circle><circle r="0.717985" transform="matrix(1 8.74228e-08 8.74228e-08 -1 164.988 11.44)" fill="#2A67B1"></circle><circle r="0.717985" transform="matrix(1 8.74228e-08 8.74228e-08 -1 122.866 0.9097)" fill="#2A67B1"></circle><circle r="0.717985" transform="matrix(1 8.74228e-08 8.74228e-08 -1 133.397 0.9097)" fill="#2A67B1"></circle><circle r="0.717985" transform="matrix(1 8.74228e-08 8.74228e-08 -1 143.927 0.9097)" fill="#2A67B1"></circle><circle r="0.717985" transform="matrix(1 8.74228e-08 8.74228e-08 -1 154.458 0.9097)" fill="#2A67B1"></circle><circle r="0.717985" transform="matrix(1 8.74228e-08 8.74228e-08 -1 164.988 0.9097)" fill="#2A67B1"></circle><circle r="1.02098" transform="matrix(-0.461755 -0.887008 -0.887008 0.461755 79.9786 400.726)" fill="#2A67B1"></circle><circle r="1.02098" transform="matrix(-0.461755 -0.887008 -0.887008 0.461755 73.0643 387.445)" fill="#2A67B1"></circle><circle r="1.02098" transform="matrix(-0.461755 -0.887008 -0.887008 0.461755 66.1499 374.162)" fill="#2A67B1"></circle><circle r="1.02098" transform="matrix(-0.461755 -0.887008 -0.887008 0.461755 59.2354 360.88)" fill="#2A67B1"></circle><circle r="1.02098" transform="matrix(-0.461755 -0.887008 -0.887008 0.461755 66.6964 407.641)" fill="#2A67B1"></circle><circle r="1.02098" transform="matrix(-0.461755 -0.887008 -0.887008 0.461755 59.782 394.359)" fill="#2A67B1"></circle><circle r="1.02098" transform="matrix(-0.461755 -0.887008 -0.887008 0.461755 52.8675 381.077)" fill="#2A67B1"></circle><circle r="1.02098" transform="matrix(-0.461755 -0.887008 -0.887008 0.461755 45.9531 367.795)" fill="#2A67B1"></circle><circle r="1.02098" transform="matrix(-0.461755 -0.887008 -0.887008 0.461755 53.414 414.556)" fill="#2A67B1"></circle><circle r="1.02098" transform="matrix(-0.461755 -0.887008 -0.887008 0.461755 46.4996 401.274)" fill="#2A67B1"></circle><circle r="1.02098" transform="matrix(-0.461755 -0.887008 -0.887008 0.461755 39.5851 387.991)" fill="#2A67B1"></circle><circle r="1.02098" transform="matrix(-0.461755 -0.887008 -0.887008 0.461755 32.6707 374.709)" fill="#2A67B1"></circle><circle r="1.02098" transform="matrix(-0.461755 -0.887008 -0.887008 0.461755 40.1318 421.47)" fill="#2A67B1"></circle><circle r="1.02098" transform="matrix(-0.461755 -0.887008 -0.887008 0.461755 33.2174 408.188)" fill="#2A67B1"></circle><circle r="1.02098" transform="matrix(-0.461755 -0.887008 -0.887008 0.461755 26.3029 394.906)" fill="#2A67B1"></circle><circle r="1.02098" transform="matrix(-0.461755 -0.887008 -0.887008 0.461755 19.3885 381.623)" fill="#2A67B1"></circle><circle r="37.946" transform="matrix(-1 0 0 1 44.4183 357.219)" stroke="#6BBEE6" stroke-width="12.69"></circle></svg>