<svg width="138" height="104" viewBox="0 0 138 104" fill="none" xmlns="http://www.w3.org/2000/svg">
<g clip-path="url(#clip0_603_121)">
<path d="M138.009 100.104C138.082 97.8749 136.307 96.0099 134.045 95.9383C131.783 95.8667 129.89 97.6156 129.817 99.8446C129.744 102.074 131.519 103.939 133.781 104.01C136.044 104.082 137.936 102.333 138.009 100.104Z" fill="#6200EA"/>
<path d="M4.09797 95.9278C3.28729 95.927 2.4946 96.1632 1.82017 96.6065C1.14575 97.0497 0.619895 97.6801 0.309138 98.4179C-0.00162003 99.1557 -0.0833195 99.9677 0.0743746 100.751C0.232069 101.535 0.62207 102.255 1.19504 102.82C1.76802 103.385 2.49822 103.77 3.29327 103.926C4.08832 104.082 4.9125 104.002 5.66154 103.697C6.41059 103.391 7.05084 102.874 7.50131 102.21C7.95178 101.545 8.19223 100.765 8.19223 99.9658C8.19223 98.8955 7.76099 97.869 6.99328 97.1118C6.22557 96.3546 5.18419 95.9288 4.09797 95.9278Z" fill="#6200EA"/>
<path d="M101.453 1.74792e-06C100.642 -0.000741322 99.8496 0.23545 99.1752 0.678699C98.5007 1.12195 97.9749 1.75234 97.6641 2.49012C97.3534 3.2279 97.2717 4.03992 97.4294 4.82347C97.5871 5.60701 97.9771 6.32686 98.55 6.89196C99.123 7.45706 99.8532 7.84202 100.648 7.99813C101.443 8.15424 102.267 8.07449 103.017 7.76898C103.766 7.46346 104.406 6.9459 104.856 6.28178C105.307 5.61765 105.547 4.8368 105.547 4.038C105.547 2.9677 105.116 1.94119 104.348 1.18403C103.581 0.426867 102.539 0.000997369 101.453 1.74792e-06Z" fill="#6200EA"/>
<path d="M117.677 0C116.867 0 116.075 0.236823 115.401 0.680524C114.727 1.12422 114.201 1.75487 113.891 2.49272C113.581 3.23057 113.5 4.04247 113.658 4.82577C113.816 5.60906 114.207 6.32857 114.78 6.89329C115.353 7.45802 116.083 7.8426 116.878 7.9984C117.673 8.15421 118.497 8.07425 119.246 7.76862C119.994 7.46299 120.635 6.94543 121.085 6.28139C121.535 5.61734 121.775 4.83664 121.775 4.03799C121.775 2.96705 121.344 1.93997 120.575 1.1827C119.807 0.42543 118.764 0 117.677 0Z" fill="#6200EA"/>
<path d="M138.187 4.12528C138.277 1.89516 136.516 0.0149729 134.253 -0.074232C131.989 -0.163437 130.081 1.57212 129.991 3.80224C129.9 6.03237 131.661 7.91256 133.925 8.00176C136.188 8.09097 138.096 6.35541 138.187 4.12528Z" fill="#6200EA"/>
<path d="M137.998 20.1633C138.075 17.9344 136.304 16.0661 134.042 15.9902C131.78 15.9143 129.884 17.6596 129.807 19.8885C129.73 22.1173 131.501 23.9857 133.763 24.0615C136.025 24.1374 137.921 22.3921 137.998 20.1633Z" fill="#6200EA"/>
<path d="M117.677 15.9904C116.867 15.9905 116.074 16.2274 115.4 16.6712C114.726 17.1151 114.201 17.746 113.891 18.484C113.581 19.2221 113.5 20.0342 113.658 20.8176C113.817 21.601 114.207 22.3205 114.781 22.8851C115.354 23.4496 116.085 23.8339 116.88 23.9893C117.675 24.1447 118.5 24.0642 119.248 23.758C119.997 23.4518 120.637 22.9336 121.087 22.2691C121.537 21.6046 121.776 20.8235 121.775 20.0247C121.775 19.4946 121.669 18.9697 121.463 18.48C121.257 17.9903 120.956 17.5454 120.575 17.1707C120.194 16.7961 119.743 16.499 119.245 16.2965C118.748 16.0939 118.215 15.99 117.677 15.9904Z" fill="#6200EA"/>
<path d="M101.453 15.9904C100.642 15.9897 99.8493 16.226 99.1748 16.6694C98.5003 17.1128 97.9744 17.7434 97.6638 18.4814C97.3531 19.2194 97.2716 20.0317 97.4296 20.8153C97.5876 21.5989 97.978 22.3188 98.5514 22.8837C99.1247 23.4487 99.8553 23.8333 100.651 23.989C101.446 24.1447 102.27 24.0644 103.019 23.7583C103.768 23.4523 104.408 22.9341 104.858 22.2695C105.308 21.6049 105.548 20.8237 105.547 20.0247C105.547 19.4949 105.441 18.9703 105.236 18.4809C105.03 17.9914 104.728 17.5467 104.348 17.1721C103.968 16.7974 103.516 16.5003 103.02 16.2975C102.523 16.0948 101.991 15.9904 101.453 15.9904Z" fill="#6200EA"/>
<path d="M101.453 31.9772C100.642 31.9764 99.8496 32.2126 99.1752 32.6559C98.5007 33.0991 97.9749 33.7295 97.6641 34.4673C97.3534 35.2051 97.2717 36.0171 97.4294 36.8006C97.5871 37.5842 97.9771 38.304 98.55 38.8691C99.123 39.4342 99.8532 39.8192 100.648 39.9753C101.443 40.1314 102.267 40.0517 103.017 39.7462C103.766 39.4406 104.406 38.9231 104.856 38.259C105.307 37.5948 105.547 36.814 105.547 36.0152C105.547 34.9449 105.116 33.9184 104.348 33.1612C103.581 32.404 102.539 31.9782 101.453 31.9772Z" fill="#6200EA"/>
<path d="M117.677 31.9772C116.867 31.9772 116.075 32.214 115.401 32.6577C114.727 33.1014 114.201 33.732 113.891 34.4699C113.581 35.2077 113.5 36.0196 113.658 36.8029C113.816 37.5862 114.207 38.3057 114.78 38.8705C115.353 39.4352 116.083 39.8198 116.878 39.9756C117.673 40.1314 118.497 40.0514 119.246 39.7458C119.994 39.4402 120.635 38.9226 121.085 38.2586C121.535 37.5945 121.775 36.8138 121.775 36.0152C121.775 34.9442 121.344 33.9171 120.575 33.1599C119.807 32.4026 118.764 31.9772 117.677 31.9772Z" fill="#6200EA"/>
<path d="M138.001 36.1532C138.078 33.9244 136.306 32.056 134.044 31.9801C131.782 31.9043 129.886 33.6496 129.809 35.8784C129.732 38.1072 131.503 39.9756 133.765 40.0515C136.027 40.1274 137.923 38.382 138.001 36.1532Z" fill="#6200EA"/>
<path d="M101.453 47.9639C100.642 47.9632 99.8496 48.1993 99.1752 48.6426C98.5007 49.0858 97.9749 49.7162 97.6641 50.454C97.3534 51.1918 97.2717 52.0038 97.4294 52.7874C97.5871 53.5709 97.9771 54.2908 98.55 54.8559C99.123 55.421 99.8532 55.8059 100.648 55.962C101.443 56.1181 102.267 56.0384 103.017 55.7329C103.766 55.4274 104.406 54.9098 104.856 54.2457C105.307 53.5816 105.547 52.8007 105.547 52.0019C105.547 50.9316 105.116 49.9051 104.348 49.1479C103.581 48.3908 102.539 47.9649 101.453 47.9639Z" fill="#6200EA"/>
<path d="M117.677 47.9639C116.867 47.9639 116.075 48.2007 115.401 48.6444C114.727 49.0881 114.201 49.7188 113.891 50.4566C113.581 51.1945 113.5 52.0064 113.658 52.7897C113.816 53.573 114.207 54.2925 114.78 54.8572C115.353 55.4219 116.083 55.8065 116.878 55.9623C117.673 56.1181 118.497 56.0381 119.246 55.7325C119.994 55.4269 120.635 54.9093 121.085 54.2453C121.535 53.5812 121.775 52.8005 121.775 52.0019C121.775 50.931 121.344 49.9039 120.575 49.1466C119.807 48.3893 118.764 47.9639 117.677 47.9639Z" fill="#6200EA"/>
<path d="M138.225 52.1446C138.315 49.9145 136.554 48.0343 134.291 47.9451C132.027 47.8559 130.119 49.5915 130.029 51.8216C129.938 54.0517 131.7 55.9319 133.963 56.0211C136.226 56.1103 138.134 54.3748 138.225 52.1446Z" fill="#6200EA"/>
<path d="M137.997 68.129C138.074 65.9002 136.303 64.0319 134.041 63.956C131.779 63.8801 129.882 65.6254 129.805 67.8542C129.728 70.0831 131.5 71.9514 133.762 72.0273C136.024 72.1032 137.92 70.3579 137.997 68.129Z" fill="#6200EA"/>
<path d="M117.677 63.9543C116.867 63.9543 116.074 64.1913 115.4 64.6351C114.726 65.079 114.201 65.7099 113.891 66.4479C113.581 67.186 113.5 67.9981 113.658 68.7815C113.817 69.5649 114.207 70.2844 114.781 70.849C115.354 71.4135 116.085 71.7978 116.88 71.9532C117.675 72.1086 118.5 72.0281 119.248 71.7219C119.997 71.4157 120.637 70.8975 121.087 70.233C121.537 69.5685 121.776 68.7874 121.775 67.9886C121.775 67.4585 121.669 66.9336 121.463 66.4439C121.257 65.9542 120.956 65.5093 120.575 65.1346C120.194 64.76 119.743 64.4629 119.245 64.2604C118.748 64.0578 118.215 63.9539 117.677 63.9543Z" fill="#6200EA"/>
<path d="M101.453 63.9543C100.642 63.9536 99.8493 64.1899 99.1748 64.6333C98.5003 65.0767 97.9744 65.7073 97.6638 66.4453C97.3531 67.1833 97.2716 67.9955 97.4296 68.7792C97.5876 69.5628 97.978 70.2827 98.5514 70.8476C99.1247 71.4126 99.8553 71.7972 100.651 71.9529C101.446 72.1086 102.27 72.0283 103.019 71.7222C103.768 71.4162 104.408 70.898 104.858 70.2334C105.308 69.5688 105.548 68.7875 105.547 67.9886C105.547 67.4588 105.441 66.9342 105.236 66.4447C105.03 65.9553 104.728 65.5106 104.348 65.1359C103.968 64.7613 103.516 64.4642 103.02 64.2614C102.523 64.0587 101.991 63.9543 101.453 63.9543Z" fill="#6200EA"/>
<path d="M117.677 79.9411C116.867 79.9411 116.075 80.1779 115.401 80.6216C114.727 81.0653 114.201 81.6959 113.891 82.4338C113.581 83.1716 113.5 83.9835 113.658 84.7668C113.816 85.5501 114.207 86.2696 114.78 86.8344C115.353 87.3991 116.083 87.7837 116.878 87.9395C117.673 88.0953 118.497 88.0153 119.246 87.7097C119.994 87.4041 120.635 86.8865 121.085 86.2225C121.535 85.5584 121.775 84.7777 121.775 83.9791C121.775 82.9081 121.344 81.881 120.575 81.1238C119.807 80.3665 118.764 79.9411 117.677 79.9411Z" fill="#6200EA"/>
<path d="M138.003 84.1152C138.08 81.8864 136.308 80.018 134.046 79.9421C131.784 79.8662 129.888 81.6115 129.811 83.8404C129.734 86.0692 131.506 87.9376 133.768 88.0134C136.03 88.0893 137.926 86.344 138.003 84.1152Z" fill="#6200EA"/>
<path d="M4.09822 1.74792e-06C3.28754 -0.000741322 2.49484 0.23545 1.82042 0.678699C1.14599 1.12195 0.620139 1.75234 0.309382 2.49012C-0.00137589 3.2279 -0.0830753 4.03992 0.0746187 4.82347C0.232313 5.60701 0.622314 6.32686 1.19529 6.89196C1.76826 7.45706 2.49846 7.84202 3.29351 7.99813C4.08856 8.15424 4.91274 8.07449 5.66179 7.76898C6.41083 7.46346 7.05109 6.9459 7.50156 6.28178C7.95203 5.61765 8.19247 4.8368 8.19247 4.038C8.19247 2.9677 7.76124 1.94119 6.99352 1.18403C6.22581 0.426867 5.18443 0.000997369 4.09822 1.74792e-06Z" fill="#6200EA"/>
<path d="M20.3227 0C19.5122 0 18.7198 0.236823 18.0459 0.680524C17.372 1.12422 16.8467 1.75487 16.5366 2.49272C16.2264 3.23057 16.1452 4.04247 16.3034 4.82577C16.4615 5.60906 16.8518 6.32857 17.4249 6.89329C17.998 7.45802 18.7282 7.8426 19.5232 7.9984C20.3181 8.15421 21.1421 8.07425 21.8909 7.76862C22.6398 7.46299 23.2798 6.94543 23.7301 6.28139C24.1804 5.61734 24.4207 4.83664 24.4207 4.03799C24.4207 2.96705 23.989 1.93997 23.2204 1.1827C22.4519 0.42543 21.4096 0 20.3227 0Z" fill="#6200EA"/>
<path d="M40.6389 4.18478C40.7218 1.95616 38.9555 0.0832511 36.6937 0.00153112C34.432 -0.0801889 32.5312 1.66022 32.4483 3.88885C32.3653 6.11747 34.1316 7.99038 36.3934 8.0721C38.6552 8.15382 40.556 6.41341 40.6389 4.18478Z" fill="#6200EA"/>
<path d="M40.6428 20.1534C40.7155 17.9244 38.9406 16.0595 36.6785 15.9878C34.4163 15.9162 32.5236 17.6651 32.4509 19.8941C32.3782 22.1231 34.1532 23.9881 36.4153 24.0597C38.6774 24.1313 40.5702 22.3824 40.6428 20.1534Z" fill="#6200EA"/>
<path d="M20.3227 15.9905C19.512 15.9905 18.7195 16.2274 18.0455 16.6713C17.3715 17.1151 16.8463 17.746 16.5362 18.4841C16.2261 19.2221 16.1452 20.0342 16.3036 20.8176C16.4621 21.601 16.8527 22.3205 17.4263 22.8851C17.9998 23.4497 18.7303 23.834 19.5255 23.9893C20.3207 24.1447 21.1448 24.0642 21.8936 23.758C22.6423 23.4518 23.2821 22.9337 23.7319 22.2691C24.1818 21.6046 24.4215 20.8235 24.4207 20.0247C24.4197 18.9544 23.9875 17.9283 23.2191 17.1719C22.4507 16.4154 21.4089 15.9905 20.3227 15.9905Z" fill="#6200EA"/>
<path d="M4.09797 15.9904C3.28713 15.9897 2.49428 16.226 1.81977 16.6694C1.14527 17.1128 0.619417 17.7434 0.308772 18.4814C-0.00187352 19.2194 -0.0833502 20.0317 0.0746531 20.8153C0.232656 21.5989 0.623037 22.3188 1.19639 22.8837C1.76975 23.4487 2.5003 23.8333 3.2956 23.989C4.09091 24.1447 4.9152 24.0644 5.66418 23.7583C6.41316 23.4523 7.05315 22.9341 7.50317 22.2695C7.95318 21.6049 8.19298 20.8237 8.19223 20.0247C8.19223 18.9547 7.76087 17.9286 6.99305 17.1721C6.22523 16.4155 5.18384 15.9904 4.09797 15.9904Z" fill="#6200EA"/>
<path d="M4.09797 31.9772C3.28729 31.9764 2.4946 32.2126 1.82017 32.6559C1.14575 33.0991 0.619895 33.7295 0.309138 34.4673C-0.00162003 35.2051 -0.0833195 36.0171 0.0743746 36.8006C0.232069 37.5842 0.62207 38.304 1.19504 38.8691C1.76802 39.4342 2.49822 39.8192 3.29327 39.9753C4.08832 40.1314 4.9125 40.0517 5.66154 39.7462C6.41059 39.4406 7.05084 38.9231 7.50131 38.259C7.95178 37.5948 8.19223 36.814 8.19223 36.0152C8.19223 34.9449 7.76099 33.9184 6.99328 33.1612C6.22557 32.404 5.18419 31.9782 4.09797 31.9772Z" fill="#6200EA"/>
<path d="M20.3227 31.9772C19.5122 31.9772 18.7198 32.214 18.0459 32.6577C17.372 33.1014 16.8467 33.732 16.5366 34.4699C16.2264 35.2077 16.1452 36.0196 16.3034 36.8029C16.4615 37.5862 16.8518 38.3057 17.4249 38.8705C17.998 39.4352 18.7282 39.8198 19.5232 39.9756C20.3181 40.1314 21.1421 40.0514 21.8909 39.7458C22.6398 39.4402 23.2798 38.9226 23.7301 38.2586C24.1804 37.5945 24.4207 36.8138 24.4207 36.0152C24.4207 34.9442 23.989 33.9171 23.2204 33.1599C22.4519 32.4026 21.4096 31.9772 20.3227 31.9772Z" fill="#6200EA"/>
<path d="M40.5827 35.9872C40.6506 33.7571 38.8709 31.895 36.6076 31.8281C34.3443 31.7612 32.4545 33.5148 32.3866 35.745C32.3187 37.9751 34.0984 39.8372 36.3617 39.9041C38.625 39.971 40.5148 38.2174 40.5827 35.9872Z" fill="#6200EA"/>
<path d="M4.09797 47.9639C3.28729 47.9632 2.4946 48.1993 1.82017 48.6426C1.14575 49.0858 0.619895 49.7162 0.309138 50.454C-0.00162003 51.1918 -0.0833195 52.0038 0.0743746 52.7874C0.232069 53.5709 0.62207 54.2908 1.19504 54.8559C1.76802 55.421 2.49822 55.8059 3.29327 55.962C4.08832 56.1181 4.9125 56.0384 5.66154 55.7329C6.41059 55.4274 7.05084 54.9098 7.50131 54.2457C7.95178 53.5816 8.19223 52.8007 8.19223 52.0019C8.19223 50.9316 7.76099 49.9051 6.99328 49.1479C6.22557 48.3908 5.18419 47.9649 4.09797 47.9639Z" fill="#6200EA"/>
<path d="M20.3227 47.9639C19.5122 47.9639 18.7198 48.2007 18.0459 48.6444C17.372 49.0881 16.8467 49.7188 16.5366 50.4566C16.2264 51.1945 16.1452 52.0064 16.3034 52.7897C16.4615 53.573 16.8518 54.2925 17.4249 54.8572C17.998 55.4219 18.7282 55.8065 19.5232 55.9623C20.3181 56.1181 21.1421 56.0381 21.8909 55.7325C22.6398 55.4269 23.2798 54.9093 23.7301 54.2453C24.1804 53.5812 24.4207 52.8005 24.4207 52.0019C24.4207 50.931 23.989 49.9039 23.2204 49.1466C22.4519 48.3893 21.4096 47.9639 20.3227 47.9639Z" fill="#6200EA"/>
<path d="M40.6406 52.1446C40.7235 49.9159 38.9572 48.043 36.6955 47.9613C34.4337 47.8796 32.5329 49.62 32.45 51.8486C32.367 54.0773 34.1333 55.9502 36.3951 56.0319C38.6569 56.1136 40.5577 54.3732 40.6406 52.1446Z" fill="#6200EA"/>
<path d="M40.6404 68.1173C40.7131 65.8883 38.9381 64.0233 36.676 63.9517C34.4139 63.8801 32.5211 65.629 32.4485 67.858C32.3758 70.0869 34.1507 71.9519 36.4128 72.0235C38.675 72.0952 40.5677 70.3463 40.6404 68.1173Z" fill="#6200EA"/>
<path d="M20.3227 63.9543C19.512 63.9543 18.7195 64.1913 18.0455 64.6351C17.3715 65.079 16.8463 65.7099 16.5362 66.4479C16.2261 67.186 16.1452 67.9981 16.3036 68.7815C16.4621 69.5649 16.8527 70.2844 17.4263 70.849C17.9998 71.4135 18.7303 71.7978 19.5255 71.9532C20.3207 72.1086 21.1448 72.0281 21.8936 71.7219C22.6423 71.4157 23.2821 70.8975 23.7319 70.233C24.1818 69.5685 24.4215 68.7874 24.4207 67.9886C24.4197 66.9183 23.9875 65.8922 23.2191 65.1357C22.4507 64.3793 21.4089 63.9543 20.3227 63.9543Z" fill="#6200EA"/>
<path d="M4.09797 63.9543C3.28713 63.9536 2.49428 64.1899 1.81977 64.6333C1.14527 65.0767 0.619417 65.7073 0.308772 66.4453C-0.00187352 67.1833 -0.0833502 67.9955 0.0746531 68.7792C0.232656 69.5628 0.623037 70.2827 1.19639 70.8476C1.76975 71.4126 2.5003 71.7972 3.2956 71.9529C4.09091 72.1086 4.9152 72.0283 5.66418 71.7222C6.41316 71.4162 7.05315 70.898 7.50317 70.2334C7.95318 69.5688 8.19298 68.7875 8.19223 67.9886C8.19223 67.4588 8.08633 66.9342 7.88057 66.4447C7.67481 65.9553 7.37323 65.5106 6.99305 65.1359C6.61286 64.7613 6.16151 64.4642 5.66478 64.2614C5.16804 64.0587 4.63564 63.9543 4.09797 63.9543Z" fill="#6200EA"/>
<path d="M4.09797 79.9411C3.28729 79.9403 2.4946 80.1765 1.82017 80.6198C1.14575 81.063 0.619895 81.6934 0.309138 82.4312C-0.00162003 83.169 -0.0833195 83.981 0.0743746 84.7645C0.232069 85.5481 0.62207 86.2679 1.19504 86.833C1.76802 87.3981 2.49822 87.7831 3.29327 87.9392C4.08832 88.0953 4.9125 88.0156 5.66154 87.71C6.41059 87.4045 7.05084 86.887 7.50131 86.2228C7.95178 85.5587 8.19223 84.7779 8.19223 83.9791C8.19223 82.9088 7.76099 81.8823 6.99328 81.1251C6.22557 80.3679 5.18419 79.9421 4.09797 79.9411Z" fill="#6200EA"/>
<path d="M20.3227 79.9411C19.5122 79.9411 18.7198 80.1779 18.0459 80.6216C17.372 81.0653 16.8467 81.6959 16.5366 82.4338C16.2264 83.1716 16.1452 83.9835 16.3034 84.7668C16.4615 85.5501 16.8518 86.2696 17.4249 86.8344C17.998 87.3991 18.7282 87.7837 19.5232 87.9395C20.3181 88.0953 21.1421 88.0153 21.8909 87.7097C22.6398 87.4041 23.2798 86.8865 23.7301 86.2225C24.1804 85.5584 24.4207 84.7777 24.4207 83.9791C24.4207 82.9081 23.989 81.881 23.2204 81.1238C22.4519 80.3665 21.4096 79.9411 20.3227 79.9411Z" fill="#6200EA"/>
<path d="M52.7756 8.07599C55.0389 8.07599 56.8736 6.26812 56.8736 4.038C56.8736 1.80787 55.0389 0 52.7756 0C50.5123 0 48.6775 1.80787 48.6775 4.038C48.6775 6.26812 50.5123 8.07599 52.7756 8.07599Z" fill="#6200EA"/>
<path d="M69.0135 8.07456C71.2768 8.06795 73.1061 6.25472 73.0994 4.02461C73.0927 1.79449 71.2525 -0.00800826 68.9892 -0.00139136C66.7259 0.00522554 64.8966 1.81845 64.9033 4.04857C64.91 6.27868 66.7502 8.08118 69.0135 8.07456Z" fill="#6200EA"/>
<path d="M85.2245 1.75054e-06C84.414 1.75054e-06 83.6217 0.236825 82.9478 0.680526C82.2738 1.12423 81.7486 1.75488 81.4384 2.49272C81.1282 3.23057 81.0471 4.04248 81.2052 4.82577C81.3633 5.60907 81.7536 6.32857 82.3268 6.89329C82.8999 7.45802 83.6301 7.8426 84.425 7.9984C85.22 8.15421 86.044 8.07425 86.7928 7.76862C87.5416 7.46299 88.1816 6.94543 88.6319 6.28139C89.0822 5.61734 89.3226 4.83664 89.3226 4.038C89.3231 3.50758 89.2174 2.98227 89.0117 2.49214C88.8059 2.002 88.5041 1.55666 88.1234 1.1816C87.7428 0.806539 87.2908 0.509122 86.7934 0.306368C86.296 0.103615 85.7628 -0.00049235 85.2245 1.75054e-06Z" fill="#6200EA"/>
<path d="M85.2245 15.9904C84.4138 15.9905 83.6214 16.2274 82.9474 16.6712C82.2734 17.1151 81.7481 17.746 81.438 18.484C81.128 19.2221 81.0471 20.0342 81.2055 20.8176C81.3639 21.601 81.7546 22.3205 82.3281 22.8851C82.9016 23.4496 83.6322 23.8339 84.4274 23.9893C85.2226 24.1447 86.0467 24.0642 86.7954 23.758C87.5442 23.4518 88.184 22.9336 88.6338 22.2691C89.0836 21.6046 89.3234 20.8235 89.3226 20.0247C89.3226 19.4946 89.2166 18.9697 89.0106 18.48C88.8046 17.9903 88.5027 17.5454 88.1221 17.1707C87.7415 16.7961 87.2897 16.499 86.7925 16.2965C86.2953 16.0939 85.7625 15.99 85.2245 15.9904Z" fill="#6200EA"/>
<path d="M69.0106 24.0649C71.2739 24.0591 73.1039 22.2465 73.0979 20.0164C73.092 17.7863 71.2525 15.9831 68.9892 15.989C66.7259 15.9948 64.8959 17.8074 64.9018 20.0375C64.9078 22.2676 66.7473 24.0708 69.0106 24.0649Z" fill="#6200EA"/>
<path d="M52.7756 24.0627C55.0389 24.0627 56.8736 22.2548 56.8736 20.0247C56.8736 17.7946 55.0389 15.9867 52.7756 15.9867C50.5123 15.9867 48.6775 17.7946 48.6775 20.0247C48.6775 22.2548 50.5123 24.0627 52.7756 24.0627Z" fill="#6200EA"/>
<path d="M52.7756 40.0494C55.0389 40.0494 56.8736 38.2415 56.8736 36.0114C56.8736 33.7813 55.0389 31.9734 52.7756 31.9734C50.5123 31.9734 48.6775 33.7813 48.6775 36.0114C48.6775 38.2415 50.5123 40.0494 52.7756 40.0494Z" fill="#6200EA"/>
<path d="M69.0074 40.0554C71.2707 40.0495 73.1007 38.2369 73.0948 36.0068C73.0888 33.7767 71.2493 31.9735 68.986 31.9794C66.7227 31.9852 64.8927 33.7978 64.8987 36.0279C64.9046 38.2581 66.7442 40.0612 69.0074 40.0554Z" fill="#6200EA"/>
<path d="M85.2245 31.9772C84.414 31.9772 83.6217 32.214 82.9478 32.6577C82.2738 33.1014 81.7486 33.732 81.4384 34.4699C81.1282 35.2077 81.0471 36.0196 81.2052 36.8029C81.3633 37.5862 81.7536 38.3057 82.3268 38.8705C82.8999 39.4352 83.6301 39.8198 84.425 39.9756C85.22 40.1314 86.044 40.0514 86.7928 39.7458C87.5416 39.4402 88.1816 38.9226 88.6319 38.2586C89.0822 37.5945 89.3226 36.8138 89.3226 36.0152C89.3231 35.4848 89.2174 34.9594 89.0117 34.4693C88.8059 33.9792 88.5041 33.5338 88.1234 33.1588C87.7428 32.7837 87.2908 32.4863 86.7934 32.2835C86.296 32.0808 85.7628 31.9767 85.2245 31.9772Z" fill="#6200EA"/>
<path d="M52.7756 56.0399C55.0389 56.0399 56.8736 54.232 56.8736 52.0019C56.8736 49.7718 55.0389 47.9639 52.7756 47.9639C50.5123 47.9639 48.6775 49.7718 48.6775 52.0019C48.6775 54.232 50.5123 56.0399 52.7756 56.0399Z" fill="#6200EA"/>
<path d="M85.2245 47.9639C84.414 47.9639 83.6217 48.2007 82.9478 48.6444C82.2738 49.0881 81.7486 49.7188 81.4384 50.4566C81.1282 51.1945 81.0471 52.0064 81.2052 52.7897C81.3633 53.573 81.7536 54.2925 82.3268 54.8572C82.8999 55.4219 83.6301 55.8065 84.425 55.9623C85.22 56.1181 86.044 56.0381 86.7928 55.7325C87.5416 55.4269 88.1816 54.9093 88.6319 54.2453C89.0822 53.5812 89.3226 52.8005 89.3226 52.0019C89.3231 51.4715 89.2174 50.9462 89.0117 50.456C88.8059 49.9659 88.5041 49.5206 88.1234 49.1455C87.7428 48.7704 87.2908 48.473 86.7934 48.2703C86.296 48.0675 85.7628 47.9634 85.2245 47.9639Z" fill="#6200EA"/>
</g>
<defs>
<clipPath id="clip0_603_121">
<rect width="138" height="104" fill="white"/>
</clipPath>
</defs>
</svg>
