<svg width="104" height="104" viewBox="0 0 104 104" fill="none" xmlns="http://www.w3.org/2000/svg">
<g clip-path="url(#clip0_603_391)">
<path d="M23.232 61.8282C23.6252 62.2856 24.0408 62.7291 24.4731 63.1642C24.9053 63.5992 25.3544 64.0008 25.8117 64.408L2.57699 87.64C2.13448 87.2272 1.69661 86.8052 1.2634 86.3738C0.830178 85.9425 0.409046 85.5055 0 85.063L23.232 61.8282Z" fill="#FFFF00"/>
<path d="M86.3738 1.2634C86.8052 1.69661 87.2272 2.13448 87.64 2.57699L64.408 25.8117C64.012 25.3544 63.5964 24.9081 63.1614 24.4731C62.7263 24.038 62.2819 23.6243 61.8282 23.232L85.063 0C85.5074 0.416483 85.9443 0.837615 86.3738 1.2634Z" fill="#FFFF00"/>
<path d="M28.729 66.6448C29.7809 67.343 30.8806 67.9665 32.02 68.5106L8.19674 92.3338C7.21132 91.6124 6.24913 90.8566 5.31018 90.0664L28.729 66.6448Z" fill="#FFFF00"/>
<path d="M90.0664 5.31015C90.8566 6.25282 91.6124 7.21593 92.3338 8.1995L68.5106 32.0227C67.966 30.8836 67.3426 29.784 66.6448 28.7318L90.0664 5.31015Z" fill="#FFFF00"/>
<path d="M35.7292 69.9581C37.1066 70.3851 38.5158 70.7022 39.9433 70.9063L14.4691 96.3778C13.3777 95.7661 12.3048 95.1153 11.2506 94.4255L35.7292 69.9581Z" fill="#FFFF00"/>
<path d="M94.4366 11.2506C95.1227 12.3049 95.7688 13.3777 96.375 14.4691L70.9007 39.949C70.6973 38.5208 70.3821 37.1108 69.958 35.7321L94.4366 11.2506Z" fill="#FFFF00"/>
<path d="M44.8603 71.1517C46.9109 71.0751 48.9465 70.7692 50.9291 70.2397L21.461 99.705C20.2478 99.2281 19.0569 98.701 17.8772 98.1348L44.8603 71.1517Z" fill="#FFFF00"/>
<path d="M98.1348 17.8772C98.6926 19.0569 99.2253 20.2478 99.705 21.4638L70.2397 50.929C70.7694 48.9465 71.0753 46.9109 71.1517 44.8603L98.1348 17.8772Z" fill="#FFFF00"/>
<path d="M101.077 25.2484C101.507 26.5731 101.889 27.9146 102.223 29.2589L29.2589 102.223C27.9147 101.889 26.5732 101.507 25.2484 101.077L101.077 25.2484Z" fill="#FFFF00"/>
<path d="M103.119 33.5344C103.381 35.0441 103.584 36.5594 103.729 38.0804L38.0803 103.729C36.5612 103.588 35.0459 103.385 33.5343 103.119L103.119 33.5344Z" fill="#FFFF00"/>
<path d="M103.992 42.9666C104.02 44.7348 103.969 46.5086 103.838 48.2656L48.2768 103.841C46.5086 103.969 44.7348 104.02 42.9778 103.994L103.992 42.9666Z" fill="#FFFF00"/>
<path d="M103.11 54.1726C102.718 56.4401 102.197 58.6832 101.548 60.8912L60.88 101.554C58.6718 102.201 56.4286 102.721 54.1614 103.113L103.11 54.1726Z" fill="#FFFF00"/>
<path d="M98.4249 69.1632C92.4174 82.0567 82.0561 92.419 69.1632 98.4277L98.4249 69.1632Z" fill="#FFFF00"/>
</g>
<defs>
<clipPath id="clip0_603_391">
<rect width="104" height="104" fill="white"/>
</clipPath>
</defs>
</svg>
